Coordinates
version=1
nRows=8
nColumns=40
inDegrees=yes

Units are S.I. units (second, meters, Newtons, ...)
Angles are in degrees.

endheader
time	pelvis_tilt	pelvis_list	pelvis_rotation	pelvis_tx	pelvis_ty	pelvis_tz	hip_flexion_r	hip_adduction_r	hip_rotation_r	knee_angle_r	knee_angle_r_beta	ankle_angle_r	subtalar_angle_r	mtp_angle_r	hip_flexion_l	hip_adduction_l	hip_rotation_l	knee_angle_l	knee_angle_l_beta	ankle_angle_l	subtalar_angle_l	mtp_angle_l	lumbar_extension	lumbar_bending	lumbar_rotation	arm_flex_r	arm_add_r	arm_rot_r	elbow_flex_r	pro_sup_r	wrist_flex_r	wrist_dev_r	arm_flex_l	arm_add_l	arm_rot_l	elbow_flex_l	pro_sup_l	wrist_flex_l	wrist_dev_l
     50.21000000	     -4.40685902	     -4.42651225	     -6.96087931	      1.00021773	      0.93108169	      0.49548960	     16.90596038	      3.36381913	     -4.55960167	     15.54770635	     15.54770635	      4.67652927	      4.24162106	     -4.66306284	     -1.43813576	     -7.82833681	    -12.80139107	     16.64153076	     16.64153076	     18.74215541	     -3.14901282	      0.26956512	     -7.02770108	      7.25436324	      0.88230158	    -14.00168179	    -13.19246844	     -6.50026157	     28.69198854	     45.70871719	      0.00000000	      0.00000000	     34.62267885	    -20.80154620	    -11.70472514	     70.08286249	     48.21675087	      0.00000000	      0.00000000
     50.23200000	     -4.34462915	     -4.42452029	     -6.53159783	      1.00189428	      0.93163911	      0.49989390	     16.32759854	      3.55994484	     -4.80392613	     15.48190367	     15.48190367	      5.16732587	      4.15272604	     -4.78030603	     -1.50834776	     -8.25321475	    -12.50308984	     17.25559114	     17.25559114	     18.54555121	     -3.14284609	      0.29379389	     -6.99250093	      7.04237846	      1.04873012	    -13.48328241	    -13.24064604	     -6.46705555	     28.82194056	     45.70729157	      0.00000000	      0.00000000	     33.73329900	    -20.21255667	    -11.48712540	     69.79453501	     48.18792961	      0.00000000	      0.00000000
     50.25400000	     -4.34974486	     -4.63325378	     -6.04997292	      1.00315375	      0.93195451	      0.50435170	     15.72379532	      3.98928492	     -5.21924144	     15.21161530	     15.21161530	      5.53537954	      4.18658600	     -4.80740552	     -1.03212911	     -9.07114323	    -12.12960026	     18.76967857	     18.76967857	     18.48444996	     -3.24465608	      0.03289814	     -6.96790567	      7.10159802	      1.13306853	    -12.79015616	    -13.38891001	     -6.39698043	     28.85480281	     45.71196590	      0.00000000	      0.00000000	     32.75319341	    -19.86247122	    -11.29580764	     69.36693834	     48.15544934	      0.00000000	      0.00000000
     50.27600000	     -4.39742075	     -4.69277578	     -5.57301294	      1.00424246	      0.93207100	      0.50868439	     15.30019454	      4.26437473	     -5.58332546	     15.13729914	     15.13729914	      5.99104134	      4.10845597	     -4.83802232	     -0.32097953	     -9.78772095	    -11.82662936	     20.56685730	     20.56685730	     18.28885795	     -3.08265554	     -0.60135254	     -6.80695848	      7.00838525	      1.09497630	    -11.81111054	    -13.43558990	     -6.22011356	     28.67349106	     45.72503929	      0.00000000	      0.00000000	     31.49502681	    -19.51203395	    -11.09940935	     68.83233218	     48.11446036	      0.00000000	      0.00000000
     50.29800000	     -4.26414162	     -4.76458244	     -5.10750651	      1.00515085	      0.93227424	      0.51295082	     14.78061891	      4.53877665	     -5.84427685	     15.23423445	     15.23423445	      6.63882654	      3.95303132	     -4.54034005	      0.34443752	    -10.49989428	    -11.39680057	     22.55498112	     22.55498112	     17.28088643	     -3.46827208	     -2.98381928	     -6.85101745	      6.89231272	      0.83936506	    -10.03923040	    -13.51061449	     -5.48116129	     27.10538287	     45.79849519	      0.00000000	      0.00000000	     29.89368299	    -19.27749738	    -11.23819005	     68.66419940	     48.06871638	      0.00000000	      0.00000000
     50.32000000	     -4.15770532	     -4.76209571	     -4.60106241	      1.00575454	      0.93226435	      0.51697812	     14.40869710	      4.70864964	     -6.15935788	     15.48636131	     15.48636131	      7.20187342	      3.76732468	     -4.69416969	      1.47253402	    -11.12677932	    -10.50106303	     25.28788470	     25.28788470	     16.69423303	     -4.19144859	     -3.97300519	     -6.90189403	      6.77109056	      0.96562154	     -8.97574939	    -13.50803666	     -5.42470021	     27.31904095	     45.80211084	      0.00000000	      0.00000000	     28.52289637	    -18.70500942	    -11.05318478	     68.01144426	     48.02731484	      0.00000000	      0.00000000
     50.34200000	     -3.90471411	     -4.77619162	     -4.06453381	      1.00613932	      0.93220313	      0.52086788	     13.97528778	      4.87959967	     -6.44897446	     15.88246399	     15.88246399	      7.82168469	      3.47891079	     -4.83393576	      2.78645922	    -11.78334703	     -9.44769333	     28.58622508	     28.58622508	     15.85788818	     -5.08695164	     -5.18828351	     -7.15197551	      6.63673077	      1.11577930	     -7.71511524	    -13.51772723	     -5.36786748	     27.47378598	     45.80862744	      0.00000000	      0.00000000	     27.12283638	    -18.07432681	    -10.83862766	     67.29181207	     47.98376928	      0.00000000	      0.00000000
     50.36400000	     -3.78094379	     -4.66325868	     -3.48923237	      1.00617237	      0.93169048	      0.52437316	     13.97492402	      4.88141455	     -6.68318954	     16.78935977	     16.78935977	      8.86688763	      3.00285474	     -4.16158707	      4.36906507	    -12.16207418	     -7.98283172	     31.73079447	     31.73079447	     12.59781911	     -7.63919556	    -11.27215105	     -7.17791064	      6.43263356	      0.70152130	     -5.30417736	    -13.44333693	     -4.86077229	     25.70673786	     45.93313713	      0.00000000	      0.00000000	     25.14025380	    -17.62844957	    -11.14119267	     66.50628698	     47.91693597	      0.00000000	      0.00000000
